PathFileType	4	(X/Y/Z)	C:\Users\italobelli\Desktop\GitHub\PTbot_officialCBL\Personal_Results\ABD01_noisy2.trc
DataRate	CameraRate	NumFrames	NumMarkers	Units	OrigDataRate	OrigDataStartFrame	OrigNumFrames
104.666667	104.666667	25	9	m	104.666667	963	1100
Frame#	Time		gu		centelbow		EpL		centpxt8		centijc7		ij		ts		aa		ai
			X1	Y1	Z1	X2	Y2	Z2	X3	Y3	Z3	X4	Y4	Z4	X5	Y5	Z5	X6	Y6	Z6	X7	Y7	Z7	X8	Y8	Z8	X9	Y9	Z9

963	9.1911	-0.1056	0.0039216	0.16162	-0.13954	-0.24873	0.22847	-0.14568	-0.23676	0.25684	-0.046816	-0.15316	-0.008669	-0.046816	0.031938	-0.008669	0	0	0	-0.12744	0.027783	0.031565	-0.1382	0.037552	0.15008	-0.13663	-0.084797	0.045477
964	9.2006	-0.10556	0.0037436	0.16173	-0.13963	-0.24957	0.2265	-0.14546	-0.23791	0.25506	-0.046816	-0.15316	-0.008669	-0.046816	0.031938	-0.008669	0	0	0	-0.12746	0.027984	0.031719	-0.13805	0.037498	0.15027	-0.1368	-0.08461	0.045391
965	9.2102	-0.10552	0.0035695	0.16185	-0.13973	-0.2504	0.22456	-0.14522	-0.23902	0.25329	-0.046816	-0.15316	-0.008669	-0.046816	0.031938	-0.008669	0	0	0	-0.12749	0.028183	0.031871	-0.13789	0.037446	0.15045	-0.13697	-0.084422	0.045306
966	9.2197	-0.10547	0.0033993	0.16196	-0.13982	-0.25119	0.22263	-0.14498	-0.2401	0.25154	-0.046816	-0.15316	-0.008669	-0.046816	0.031938	-0.008669	0	0	0	-0.12751	0.028379	0.032022	-0.13772	0.037394	0.15064	-0.13714	-0.084236	0.045223
967	9.2293	-0.10543	0.0032331	0.16207	-0.1399	-0.25196	0.22072	-0.14474	-0.24115	0.2498	-0.046816	-0.15316	-0.008669	-0.046816	0.031938	-0.008669	0	0	0	-0.12753	0.028573	0.03217	-0.13756	0.037345	0.15082	-0.1373	-0.08405	0.045141
968	9.2389	-0.10539	0.003071	0.16218	-0.13999	-0.25271	0.21883	-0.1445	-0.24218	0.24808	-0.046816	-0.15316	-0.008669	-0.046816	0.031938	-0.008669	0	0	0	-0.12756	0.028764	0.032317	-0.1374	0.037296	0.15099	-0.13746	-0.083866	0.045062
969	9.2484	-0.10535	0.002913	0.16228	-0.14007	-0.25343	0.21696	-0.14425	-0.24317	0.24638	-0.046816	-0.15316	-0.008669	-0.046816	0.031938	-0.008669	0	0	0	-0.12758	0.028952	0.032461	-0.13723	0.03725	0.15117	-0.13762	-0.083683	0.044985
970	9.258	-0.1053	0.0027594	0.16239	-0.14015	-0.25412	0.21512	-0.144	-0.24412	0.2447	-0.046816	-0.15316	-0.008669	-0.046816	0.031938	-0.008669	0	0	0	-0.1276	0.029136	0.032603	-0.13706	0.037204	0.15134	-0.13777	-0.083501	0.044909
971	9.2675	-0.10526	0.0026101	0.16249	-0.14023	-0.25478	0.21331	-0.14375	-0.24505	0.24304	-0.046816	-0.15316	-0.008669	-0.046816	0.031938	-0.008669	0	0	0	-0.12763	0.029317	0.032742	-0.1369	0.03716	0.1515	-0.13793	-0.083322	0.044836
972	9.2771	-0.10522	0.0024654	0.16258	-0.1403	-0.25542	0.21153	-0.1435	-0.24594	0.24141	-0.046816	-0.15316	-0.008669	-0.046816	0.031938	-0.008669	0	0	0	-0.12765	0.029494	0.032878	-0.13673	0.037118	0.15166	-0.13808	-0.083146	0.044764
973	9.2866	-0.10518	0.0023251	0.16268	-0.14037	-0.25603	0.20978	-0.14325	-0.2468	0.23981	-0.046816	-0.15316	-0.008669	-0.046816	0.031938	-0.008669	0	0	0	-0.12767	0.029666	0.03301	-0.13657	0.037078	0.15182	-0.13823	-0.082972	0.044695
974	9.2962	-0.10514	0.0021896	0.16276	-0.14044	-0.25661	0.20807	-0.14301	-0.24762	0.23823	-0.046816	-0.15316	-0.008669	-0.046816	0.031938	-0.008669	0	0	0	-0.12769	0.029835	0.03314	-0.13641	0.037038	0.15197	-0.13837	-0.082801	0.044627
975	9.3057	-0.1051	0.0020588	0.16285	-0.14051	-0.25717	0.20639	-0.14276	-0.24841	0.23669	-0.046816	-0.15316	-0.008669	-0.046816	0.031938	-0.008669	0	0	0	-0.12772	0.029998	0.033265	-0.13625	0.037001	0.15212	-0.13852	-0.082634	0.044561
976	9.3153	-0.10506	0.0019328	0.16293	-0.14057	-0.25769	0.20476	-0.14253	-0.24916	0.23519	-0.046816	-0.15316	-0.008669	-0.046816	0.031938	-0.008669	0	0	0	-0.12774	0.030157	0.033387	-0.13609	0.036965	0.15226	-0.13866	-0.082471	0.044497
977	9.3248	-0.10502	0.0018118	0.16301	-0.14063	-0.25819	0.20316	-0.14229	-0.24987	0.23372	-0.046816	-0.15316	-0.008669	-0.046816	0.031938	-0.008669	0	0	0	-0.12776	0.030311	0.033505	-0.13594	0.036931	0.1524	-0.13879	-0.082311	0.044436
978	9.3344	-0.10498	0.0016958	0.16309	-0.14069	-0.25866	0.20162	-0.14206	-0.25055	0.23229	-0.046816	-0.15316	-0.008669	-0.046816	0.031938	-0.008669	0	0	0	-0.12778	0.03046	0.033618	-0.13579	0.036898	0.15253	-0.13892	-0.082156	0.044376
979	9.3439	-0.10494	0.001585	0.16316	-0.14075	-0.2591	0.20011	-0.14183	-0.25118	0.2309	-0.046816	-0.15316	-0.008669	-0.046816	0.031938	-0.008669	0	0	0	-0.1278	0.030603	0.033727	-0.13565	0.036867	0.15265	-0.13905	-0.082007	0.044318
980	9.3535	-0.10491	0.0014794	0.16323	-0.1408	-0.25951	0.19866	-0.14162	-0.25178	0.22955	-0.046816	-0.15316	-0.008669	-0.046816	0.031938	-0.008669	0	0	0	-0.12782	0.03074	0.033831	-0.13551	0.036838	0.15277	-0.13918	-0.081862	0.044262
981	9.3631	-0.10488	0.001379	0.16329	-0.14085	-0.25989	0.19726	-0.14141	-0.25234	0.22825	-0.046816	-0.15316	-0.008669	-0.046816	0.031938	-0.008669	0	0	0	-0.12784	0.030871	0.03393	-0.13537	0.03681	0.15288	-0.1393	-0.081722	0.044208
982	9.3726	-0.10484	0.0012841	0.16335	-0.1409	-0.26024	0.19591	-0.1412	-0.25286	0.22699	-0.046816	-0.15316	-0.008669	-0.046816	0.031938	-0.008669	0	0	0	-0.12786	0.030996	0.034024	-0.13524	0.036784	0.15299	-0.13942	-0.081589	0.044157
983	9.3822	-0.10481	0.0011947	0.1634	-0.14095	-0.26055	0.19462	-0.14101	-0.25334	0.22578	-0.046816	-0.15316	-0.008669	-0.046816	0.031938	-0.008669	0	0	0	-0.12788	0.031114	0.034112	-0.13511	0.03676	0.15309	-0.13954	-0.081461	0.044107
984	9.3917	-0.10479	0.0011109	0.16345	-0.141	-0.26084	0.19339	-0.14083	-0.25378	0.22463	-0.046816	-0.15316	-0.008669	-0.046816	0.031938	-0.008669	0	0	0	-0.1279	0.031226	0.034195	-0.135	0.036738	0.15318	-0.13965	-0.08134	0.044059
985	9.4013	-0.10476	0.0010328	0.16349	-0.14104	-0.2611	0.19222	-0.14065	-0.25418	0.22353	-0.046816	-0.15316	-0.008669	-0.046816	0.031938	-0.008669	0	0	0	-0.12792	0.03133	0.034273	-0.13489	0.036717	0.15327	-0.13975	-0.081226	0.044013
986	9.4108	-0.10474	0.00096043	0.16353	-0.14108	-0.26132	0.19111	-0.14049	-0.25453	0.22248	-0.046816	-0.15316	-0.008669	-0.046816	0.031938	-0.008669	0	0	0	-0.12794	0.031427	0.034344	-0.13478	0.036698	0.15335	-0.13985	-0.081119	0.04397
987	9.4204	-0.10471	0.00089396	0.16357	-0.14112	-0.26152	0.19006	-0.14034	-0.25484	0.2215	-0.046816	-0.15316	-0.008669	-0.046816	0.031938	-0.008669	0	0	0	-0.12795	0.031517	0.034408	-0.13469	0.036681	0.15342	-0.13995	-0.081019	0.043928
